<mxfile host="app.diagrams.net" modified="2024-05-14T02:54:09.972Z" agent="Mozilla/5.0 (Macintosh; Intel Mac OS X 10_15_7) AppleWebKit/605.1.15 (KHTML, like Gecko) Version/16.5.1 Safari/605.1.15" etag="GjgE6ZhIcYPn4Q5MKZ8g" version="24.3.1" type="github">
  <diagram name="PÃ¡gina-1" id="dOaka2SPTmcFkRZOioft">
    <mxGraphModel dx="785" dy="604" grid="1" gridSize="10" guides="1" tooltips="1" connect="1" arrows="1" fold="1" page="1" pageScale="1" pageWidth="827" pageHeight="1169" math="0" shadow="0">
      <root>
        <mxCell id="0" />
        <mxCell id="1" parent="0" />
        <mxCell id="5185pD2cCHD6QMqtkqrW-4" value="" style="edgeStyle=orthogonalEdgeStyle;rounded=0;orthogonalLoop=1;jettySize=auto;html=1;" edge="1" parent="1" source="5185pD2cCHD6QMqtkqrW-1" target="5185pD2cCHD6QMqtkqrW-2">
          <mxGeometry relative="1" as="geometry" />
        </mxCell>
        <mxCell id="5185pD2cCHD6QMqtkqrW-1" value="Algoritmo ejercicio 1" style="rounded=1;whiteSpace=wrap;html=1;" vertex="1" parent="1">
          <mxGeometry x="340" y="20" width="120" height="60" as="geometry" />
        </mxCell>
        <mxCell id="5185pD2cCHD6QMqtkqrW-6" value="" style="edgeStyle=orthogonalEdgeStyle;rounded=0;orthogonalLoop=1;jettySize=auto;html=1;" edge="1" parent="1" source="5185pD2cCHD6QMqtkqrW-2" target="5185pD2cCHD6QMqtkqrW-5">
          <mxGeometry relative="1" as="geometry" />
        </mxCell>
        <mxCell id="5185pD2cCHD6QMqtkqrW-2" value="Definir S1 como caracter" style="rounded=0;whiteSpace=wrap;html=1;" vertex="1" parent="1">
          <mxGeometry x="340" y="120" width="120" height="60" as="geometry" />
        </mxCell>
        <mxCell id="5185pD2cCHD6QMqtkqrW-9" value="" style="edgeStyle=orthogonalEdgeStyle;rounded=0;orthogonalLoop=1;jettySize=auto;html=1;" edge="1" parent="1" source="5185pD2cCHD6QMqtkqrW-5" target="5185pD2cCHD6QMqtkqrW-8">
          <mxGeometry relative="1" as="geometry" />
        </mxCell>
        <mxCell id="5185pD2cCHD6QMqtkqrW-5" value="Ingrese una cadena" style="shape=parallelogram;perimeter=parallelogramPerimeter;whiteSpace=wrap;html=1;fixedSize=1;" vertex="1" parent="1">
          <mxGeometry x="330" y="220" width="140" height="60" as="geometry" />
        </mxCell>
        <mxCell id="5185pD2cCHD6QMqtkqrW-7" value="" style="endArrow=classic;html=1;rounded=0;" edge="1" parent="1">
          <mxGeometry width="50" height="50" relative="1" as="geometry">
            <mxPoint x="461" y="225.85" as="sourcePoint" />
            <mxPoint x="484" y="210" as="targetPoint" />
          </mxGeometry>
        </mxCell>
        <mxCell id="5185pD2cCHD6QMqtkqrW-12" value="" style="edgeStyle=orthogonalEdgeStyle;rounded=0;orthogonalLoop=1;jettySize=auto;html=1;" edge="1" parent="1" source="5185pD2cCHD6QMqtkqrW-8" target="5185pD2cCHD6QMqtkqrW-11">
          <mxGeometry relative="1" as="geometry" />
        </mxCell>
        <mxCell id="5185pD2cCHD6QMqtkqrW-8" value="S1" style="shape=parallelogram;perimeter=parallelogramPerimeter;whiteSpace=wrap;html=1;fixedSize=1;" vertex="1" parent="1">
          <mxGeometry x="330" y="320" width="140" height="60" as="geometry" />
        </mxCell>
        <mxCell id="5185pD2cCHD6QMqtkqrW-10" value="" style="endArrow=classic;html=1;rounded=0;" edge="1" parent="1">
          <mxGeometry width="50" height="50" relative="1" as="geometry">
            <mxPoint x="484" y="310" as="sourcePoint" />
            <mxPoint x="458" y="330" as="targetPoint" />
          </mxGeometry>
        </mxCell>
        <mxCell id="5185pD2cCHD6QMqtkqrW-14" value="" style="edgeStyle=orthogonalEdgeStyle;rounded=0;orthogonalLoop=1;jettySize=auto;html=1;" edge="1" parent="1" source="5185pD2cCHD6QMqtkqrW-11" target="5185pD2cCHD6QMqtkqrW-13">
          <mxGeometry relative="1" as="geometry" />
        </mxCell>
        <mxCell id="5185pD2cCHD6QMqtkqrW-11" value="Definir i como entero" style="whiteSpace=wrap;html=1;" vertex="1" parent="1">
          <mxGeometry x="340" y="420" width="120" height="60" as="geometry" />
        </mxCell>
        <mxCell id="5185pD2cCHD6QMqtkqrW-18" value="" style="edgeStyle=orthogonalEdgeStyle;rounded=0;orthogonalLoop=1;jettySize=auto;html=1;" edge="1" parent="1" source="5185pD2cCHD6QMqtkqrW-13" target="5185pD2cCHD6QMqtkqrW-17">
          <mxGeometry relative="1" as="geometry" />
        </mxCell>
        <mxCell id="5185pD2cCHD6QMqtkqrW-13" value="i &amp;lt;- 1" style="whiteSpace=wrap;html=1;" vertex="1" parent="1">
          <mxGeometry x="340" y="520" width="120" height="60" as="geometry" />
        </mxCell>
        <mxCell id="5185pD2cCHD6QMqtkqrW-20" value="" style="edgeStyle=orthogonalEdgeStyle;rounded=0;orthogonalLoop=1;jettySize=auto;html=1;" edge="1" parent="1" source="5185pD2cCHD6QMqtkqrW-17" target="5185pD2cCHD6QMqtkqrW-19">
          <mxGeometry relative="1" as="geometry" />
        </mxCell>
        <mxCell id="5185pD2cCHD6QMqtkqrW-17" value="i &amp;lt;= Longitud (s1)" style="rhombus;whiteSpace=wrap;html=1;" vertex="1" parent="1">
          <mxGeometry x="295" y="620" width="210" height="80" as="geometry" />
        </mxCell>
        <mxCell id="5185pD2cCHD6QMqtkqrW-19" value="SubCadena (s1..." style="rhombus;whiteSpace=wrap;html=1;" vertex="1" parent="1">
          <mxGeometry x="300" y="750" width="200" height="80" as="geometry" />
        </mxCell>
        <mxCell id="5185pD2cCHD6QMqtkqrW-22" value="i &amp;lt;- i + 1" style="rounded=0;whiteSpace=wrap;html=1;" vertex="1" parent="1">
          <mxGeometry x="340" y="880" width="120" height="60" as="geometry" />
        </mxCell>
        <mxCell id="5185pD2cCHD6QMqtkqrW-23" value="Fin Algoritmo" style="ellipse;whiteSpace=wrap;html=1;" vertex="1" parent="1">
          <mxGeometry x="340" y="1000" width="120" height="80" as="geometry" />
        </mxCell>
        <mxCell id="5185pD2cCHD6QMqtkqrW-24" value="" style="endArrow=classic;html=1;rounded=0;" edge="1" parent="1">
          <mxGeometry width="50" height="50" relative="1" as="geometry">
            <mxPoint x="505" y="660" as="sourcePoint" />
            <mxPoint x="590" y="970" as="targetPoint" />
            <Array as="points">
              <mxPoint x="590" y="660" />
            </Array>
          </mxGeometry>
        </mxCell>
        <mxCell id="5185pD2cCHD6QMqtkqrW-26" value="" style="endArrow=classic;html=1;rounded=0;entryX=0.5;entryY=0;entryDx=0;entryDy=0;" edge="1" parent="1" target="5185pD2cCHD6QMqtkqrW-23">
          <mxGeometry width="50" height="50" relative="1" as="geometry">
            <mxPoint x="590" y="970" as="sourcePoint" />
            <mxPoint x="400" y="980" as="targetPoint" />
            <Array as="points">
              <mxPoint x="560" y="970" />
              <mxPoint x="510" y="970" />
              <mxPoint x="450" y="970" />
              <mxPoint x="400" y="970" />
            </Array>
          </mxGeometry>
        </mxCell>
        <mxCell id="5185pD2cCHD6QMqtkqrW-27" value="" style="endArrow=classic;html=1;rounded=0;" edge="1" parent="1">
          <mxGeometry width="50" height="50" relative="1" as="geometry">
            <mxPoint x="180" y="600" as="sourcePoint" />
            <mxPoint x="400" y="600" as="targetPoint" />
          </mxGeometry>
        </mxCell>
        <mxCell id="5185pD2cCHD6QMqtkqrW-28" value="" style="endArrow=classic;html=1;rounded=0;" edge="1" parent="1">
          <mxGeometry width="50" height="50" relative="1" as="geometry">
            <mxPoint x="180" y="960" as="sourcePoint" />
            <mxPoint x="180" y="600" as="targetPoint" />
          </mxGeometry>
        </mxCell>
        <mxCell id="5185pD2cCHD6QMqtkqrW-29" value="" style="endArrow=classic;html=1;rounded=0;exitX=0.5;exitY=1;exitDx=0;exitDy=0;" edge="1" parent="1" source="5185pD2cCHD6QMqtkqrW-22">
          <mxGeometry width="50" height="50" relative="1" as="geometry">
            <mxPoint x="400" y="960" as="sourcePoint" />
            <mxPoint x="180" y="960" as="targetPoint" />
            <Array as="points">
              <mxPoint x="400" y="960" />
            </Array>
          </mxGeometry>
        </mxCell>
        <mxCell id="5185pD2cCHD6QMqtkqrW-33" value="" style="endArrow=classic;html=1;rounded=0;exitX=0;exitY=0.5;exitDx=0;exitDy=0;" edge="1" parent="1" source="5185pD2cCHD6QMqtkqrW-19">
          <mxGeometry width="50" height="50" relative="1" as="geometry">
            <mxPoint x="295" y="790" as="sourcePoint" />
            <mxPoint x="280" y="830" as="targetPoint" />
            <Array as="points">
              <mxPoint x="280" y="790" />
            </Array>
          </mxGeometry>
        </mxCell>
        <mxCell id="5185pD2cCHD6QMqtkqrW-34" value="" style="endArrow=classic;html=1;rounded=0;" edge="1" parent="1">
          <mxGeometry width="50" height="50" relative="1" as="geometry">
            <mxPoint x="280" y="830" as="sourcePoint" />
            <mxPoint x="280" y="860" as="targetPoint" />
          </mxGeometry>
        </mxCell>
        <mxCell id="5185pD2cCHD6QMqtkqrW-35" value="" style="endArrow=classic;html=1;rounded=0;" edge="1" parent="1">
          <mxGeometry width="50" height="50" relative="1" as="geometry">
            <mxPoint x="500" y="790" as="sourcePoint" />
            <mxPoint x="520" y="810" as="targetPoint" />
            <Array as="points">
              <mxPoint x="520" y="790" />
            </Array>
          </mxGeometry>
        </mxCell>
        <mxCell id="5185pD2cCHD6QMqtkqrW-36" value="" style="endArrow=classic;html=1;rounded=0;" edge="1" parent="1">
          <mxGeometry width="50" height="50" relative="1" as="geometry">
            <mxPoint x="520" y="840" as="sourcePoint" />
            <mxPoint x="520" y="860" as="targetPoint" />
          </mxGeometry>
        </mxCell>
        <mxCell id="5185pD2cCHD6QMqtkqrW-37" value="" style="endArrow=none;html=1;rounded=0;" edge="1" parent="1">
          <mxGeometry width="50" height="50" relative="1" as="geometry">
            <mxPoint x="520" y="860" as="sourcePoint" />
            <mxPoint x="280" y="860" as="targetPoint" />
            <Array as="points" />
          </mxGeometry>
        </mxCell>
        <mxCell id="5185pD2cCHD6QMqtkqrW-38" value="" style="endArrow=classic;html=1;rounded=0;" edge="1" parent="1">
          <mxGeometry width="50" height="50" relative="1" as="geometry">
            <mxPoint x="400" y="860" as="sourcePoint" />
            <mxPoint x="399.5" y="880" as="targetPoint" />
          </mxGeometry>
        </mxCell>
        <mxCell id="5185pD2cCHD6QMqtkqrW-39" value="i" style="shape=parallelogram;perimeter=parallelogramPerimeter;whiteSpace=wrap;html=1;fixedSize=1;" vertex="1" parent="1">
          <mxGeometry x="490" y="810" width="60" height="30" as="geometry" />
        </mxCell>
        <mxCell id="5185pD2cCHD6QMqtkqrW-40" value="" style="endArrow=classic;html=1;rounded=0;" edge="1" parent="1">
          <mxGeometry width="50" height="50" relative="1" as="geometry">
            <mxPoint x="540" y="815.8499999999999" as="sourcePoint" />
            <mxPoint x="563" y="799.9999999999999" as="targetPoint" />
          </mxGeometry>
        </mxCell>
        <mxCell id="5185pD2cCHD6QMqtkqrW-41" value="F" style="text;html=1;align=center;verticalAlign=middle;resizable=0;points=[];autosize=1;strokeColor=none;fillColor=none;" vertex="1" parent="1">
          <mxGeometry x="505" y="628" width="30" height="30" as="geometry" />
        </mxCell>
        <mxCell id="5185pD2cCHD6QMqtkqrW-42" value="V" style="text;html=1;align=center;verticalAlign=middle;resizable=0;points=[];autosize=1;strokeColor=none;fillColor=none;" vertex="1" parent="1">
          <mxGeometry x="500" y="760" width="30" height="30" as="geometry" />
        </mxCell>
        <mxCell id="5185pD2cCHD6QMqtkqrW-43" value="F" style="text;html=1;align=center;verticalAlign=middle;resizable=0;points=[];autosize=1;strokeColor=none;fillColor=none;" vertex="1" parent="1">
          <mxGeometry x="270" y="760" width="30" height="30" as="geometry" />
        </mxCell>
        <mxCell id="5185pD2cCHD6QMqtkqrW-44" value="i" style="shape=parallelogram;perimeter=parallelogramPerimeter;whiteSpace=wrap;html=1;fixedSize=1;" vertex="1" parent="1">
          <mxGeometry x="490" y="953" width="60" height="30" as="geometry" />
        </mxCell>
      </root>
    </mxGraphModel>
  </diagram>
</mxfile>
